<?xml version="1.0" encoding="UTF-8"?>
<svg width="150px" height="150px" viewBox="0 0 150 150" version="1.1" xmlns="http://www.w3.org/2000/svg" xmlns:xlink="http://www.w3.org/1999/xlink">
    <title>d10</title>
    <g id="Page-1" stroke="none" stroke-width="1" fill="current" fill-rule="evenodd">
        <g id="Artboard" transform="translate(-359.000000, -289.000000)">
            <g id="d10" transform="translate(359.000000, 289.000000)">
                <rect id="base" fill-opacity="0" fill="#FFFFFF" x="0" y="0" width="150" height="150"></rect>
                <path d="M33.5058986,23.2793179 L110.031916,31.7880932 C114.335844,32.2666383 117.733362,35.6641562 118.211907,39.9680839 L126.720682,116.494101 C127.285832,121.576936 123.623526,126.155532 118.540691,126.720682 C117.86059,126.796301 117.174203,126.796301 116.494101,126.720682 L39.9680839,118.211907 C35.6641562,117.733362 32.2666383,114.335844 31.7880932,110.031916 L23.2793179,33.5058986 C22.7141677,28.4230643 26.3764743,23.8444681 31.4593086,23.2793179 C32.1394097,23.2036988 32.8257975,23.2036988 33.5058986,23.2793179 Z" id="Rectangle" fill="current" transform="translate(75.000000, 75.000000) rotate(135.000000) translate(-75.000000, -75.000000) "></path>
            </g>
        </g>
    </g>
</svg>